# xmcd
#
# Track frame offsets:
#	150
#	18462
#	29119
#	39883
#	58548
#	71368
#	87745
#	107455
#	115666
#	126607
#	142128
#	156018
#	166121
#	180785
#
# Disc length: 2507 seconds
#
# Revision: 0
# Processed by: cddbd v1.5.2PL0 Copyright (c) Steve Scherf et al.
# Submitted via: audiograbber 1.83.01
#
DISCID=b709c90e
DTITLE=Ivan Rebroff - Russische Weihnacht
DYEAR=1969
DGENRE=Folk
TTITLE0=Stille Nacht (Tichaja notsch)
TTITLE1=Oh Tannenbaum (Ach, jolotschka)
TTITLE2=Das Schlittenglöckchen (Bubjenzy)
TTITLE3=Ich bete an die Macht der Liebe (Kolj slawen)
TTITLE4=Winterromanze (Simnij romanss)
TTITLE5=Abendglocken (Wetschernij swon)
TTITLE6=oh, du Fröhliche (Ach, ty radastnoje)
TTITLE7=Alle Jahre wieder (Kaschdyj god prichodjit)
TTITLE8=Leise rieselt der Schnee (Ticho padajet sneg)
TTITLE9=Eintönig hell klingt das Glöckchen (Odnoswutschno gremit)
TTITLE10=Süßer die Glocken nie klingen (Sladko swenjat kolokoly)
TTITLE11=Das Tannenbäumchen (W ljesu stojala jolotschka)
TTITLE12=Russische Vesper (Molitwa)
TTITLE13=Stille nacht (Tichaja notsch)
EXTD=
EXTT0=
EXTT1=
EXTT2=
EXTT3=
EXTT4=
EXTT5=
EXTT6=
EXTT7=
EXTT8=
EXTT9=
EXTT10=
EXTT11=
EXTT12=
EXTT13=
PLAYORDER=
